<svg width="16" height="14" viewBox="0 0 16 14" fill="none" xmlns="http://www.w3.org/2000/svg">
<path d="M7.99992 3.66667C7.99992 2.95942 7.71897 2.28115 7.21887 1.78105C6.71877 1.28095 6.0405 1 5.33325 1H1.33325V11H5.99992C6.53035 11 7.03906 11.2107 7.41413 11.5858C7.78921 11.9609 7.99992 12.4696 7.99992 13M7.99992 3.66667V13M7.99992 3.66667C7.99992 2.95942 8.28087 2.28115 8.78097 1.78105C9.28106 1.28095 9.95934 1 10.6666 1H14.6666V11H9.99992C9.46949 11 8.96078 11.2107 8.58571 11.5858C8.21063 11.9609 7.99992 12.4696 7.99992 13" stroke="#303032" stroke-width="1.5" stroke-linecap="round" stroke-linejoin="round"/>
</svg>
