<svg width="16" height="16" viewBox="0 0 16 16" fill="none" xmlns="http://www.w3.org/2000/svg">
<path d="M10.6666 2.33331C10.6666 1.78103 10.2189 1.33331 9.66659 1.33331C9.1143 1.33331 8.66659 1.78103 8.66659 2.33331V5.66665C8.66659 6.21893 9.1143 6.66665 9.66659 6.66665C10.2189 6.66665 10.6666 6.21893 10.6666 5.66665V2.33331Z" stroke="#202022" stroke-width="1.5" stroke-linecap="round" stroke-linejoin="round"/>
<path d="M12.6666 5.66665V6.66665H13.6666C13.8644 6.66665 14.0577 6.608 14.2222 6.49812C14.3866 6.38824 14.5148 6.23206 14.5905 6.04933C14.6662 5.8666 14.686 5.66554 14.6474 5.47156C14.6088 5.27758 14.5135 5.09939 14.3737 4.95954C14.2338 4.81969 14.0557 4.72445 13.8617 4.68586C13.6677 4.64728 13.4666 4.66708 13.2839 4.74277C13.1012 4.81846 12.945 4.94663 12.8351 5.11108C12.7252 5.27553 12.6666 5.46887 12.6666 5.66665Z" stroke="#202022" stroke-width="1.5" stroke-linecap="round" stroke-linejoin="round"/>
<path d="M7.33325 10.3333C7.33325 9.78103 6.88554 9.33331 6.33325 9.33331C5.78097 9.33331 5.33325 9.78103 5.33325 10.3333V13.6666C5.33325 14.2189 5.78097 14.6666 6.33325 14.6666C6.88554 14.6666 7.33325 14.2189 7.33325 13.6666V10.3333Z" stroke="#202022" stroke-width="1.5" stroke-linecap="round" stroke-linejoin="round"/>
<path d="M3.33325 10.3333V9.33331H2.33325C2.13547 9.33331 1.94213 9.39196 1.77768 9.50184C1.61323 9.61172 1.48506 9.7679 1.40937 9.95063C1.33369 10.1334 1.31388 10.3344 1.35247 10.5284C1.39105 10.7224 1.48629 10.9006 1.62615 11.0404C1.766 11.1803 1.94418 11.2755 2.13816 11.3141C2.33214 11.3527 2.53321 11.3329 2.71594 11.2572C2.89866 11.1815 3.05484 11.0533 3.16472 10.8889C3.2746 10.7244 3.33325 10.5311 3.33325 10.3333Z" stroke="#202022" stroke-width="1.5" stroke-linecap="round" stroke-linejoin="round"/>
<path d="M13.6666 8.66665H10.3333C9.78097 8.66665 9.33325 9.11436 9.33325 9.66665C9.33325 10.2189 9.78097 10.6666 10.3333 10.6666H13.6666C14.2189 10.6666 14.6666 10.2189 14.6666 9.66665C14.6666 9.11436 14.2189 8.66665 13.6666 8.66665Z" stroke="#202022" stroke-width="1.5" stroke-linecap="round" stroke-linejoin="round"/>
<path d="M10.3333 12.6666H9.33325V13.6666C9.33325 13.8644 9.3919 14.0578 9.50178 14.2222C9.61166 14.3867 9.76784 14.5148 9.95057 14.5905C10.1333 14.6662 10.3344 14.686 10.5283 14.6474C10.7223 14.6088 10.9005 14.5136 11.0404 14.3738C11.1802 14.2339 11.2755 14.0557 11.314 13.8617C11.3526 13.6678 11.3328 13.4667 11.2571 13.284C11.1814 13.1012 11.0533 12.9451 10.8888 12.8352C10.7244 12.7253 10.531 12.6666 10.3333 12.6666Z" stroke="#202022" stroke-width="1.5" stroke-linecap="round" stroke-linejoin="round"/>
<path d="M5.66659 5.33331H2.33325C1.78097 5.33331 1.33325 5.78103 1.33325 6.33331C1.33325 6.8856 1.78097 7.33331 2.33325 7.33331H5.66659C6.21887 7.33331 6.66659 6.8856 6.66659 6.33331C6.66659 5.78103 6.21887 5.33331 5.66659 5.33331Z" stroke="#202022" stroke-width="1.5" stroke-linecap="round" stroke-linejoin="round"/>
<path d="M5.66659 3.33331H6.66659V2.33331C6.66659 2.13553 6.60794 1.94219 6.49806 1.77774C6.38817 1.61329 6.232 1.48512 6.04927 1.40943C5.86654 1.33375 5.66548 1.31394 5.4715 1.35253C5.27751 1.39111 5.09933 1.48635 4.95948 1.62621C4.81963 1.76606 4.72439 1.94424 4.6858 2.13822C4.64722 2.3322 4.66702 2.53327 4.74271 2.716C4.81839 2.89872 4.94657 3.0549 5.11102 3.16478C5.27546 3.27466 5.4688 3.33331 5.66659 3.33331Z" stroke="#202022" stroke-width="1.5" stroke-linecap="round" stroke-linejoin="round"/>
</svg>
